<svg width="16" height="16" viewBox="0 0 16 16" fill="none" xmlns="http://www.w3.org/2000/svg">
<path d="M5.55041 7.27725C5.54829 7.78341 5.55041 8.28954 5.55255 8.79568C6.4011 8.82333 7.25174 8.81055 8.10029 8.82333C7.72601 10.7054 5.16552 11.3158 3.81083 10.0866C2.41785 9.00836 2.48378 6.64353 3.93205 5.64187C4.94434 4.83374 6.38409 5.03363 7.39635 5.73331C7.79406 5.36541 8.16619 4.97197 8.5256 4.56365C7.68345 3.89163 6.64991 3.41313 5.55041 3.46418C3.25576 3.38761 1.14611 5.3973 1.10785 7.69197C0.961091 9.56766 2.19456 11.4072 3.93631 12.0708C5.67165 12.7385 7.89614 12.2834 9.00413 10.7246C9.7357 9.73993 9.89307 8.47245 9.80801 7.28151C8.38737 7.27087 6.9689 7.27299 5.55041 7.27725Z" fill="#6D747A"/>
<path d="M13.8486 7.27101C13.8443 6.84779 13.8422 6.42246 13.8401 5.99927C13.4169 5.99927 12.9958 5.99927 12.5747 5.99927C12.5705 6.42248 12.5662 6.84567 12.5641 7.27101C12.1388 7.27312 11.7155 7.27527 11.2924 7.27953C11.2924 7.70272 11.2924 8.12379 11.2924 8.54489C11.7155 8.54915 12.1409 8.55341 12.5641 8.55765C12.5684 8.98086 12.5684 9.40405 12.5726 9.82727C12.9958 9.82727 13.4169 9.82727 13.8401 9.82727C13.8422 9.40405 13.8443 8.98086 13.8486 8.55553C14.2739 8.55127 14.6971 8.54915 15.1203 8.54489C15.1203 8.12379 15.1203 7.7006 15.1203 7.27953C14.6971 7.27527 14.2718 7.27527 13.8486 7.27101Z" fill="#6D747A"/>
</svg>
