<svg width="16" height="16" viewBox="0 0 16 16" fill="none" xmlns="http://www.w3.org/2000/svg">
<path d="M14.8871 4.52748C14.7218 3.90501 14.2347 3.41473 13.6162 3.24833C12.4952 2.94605 8.00003 2.94604 8.00003 2.94604C8.00003 2.94604 3.50487 2.94605 2.38381 3.24836C1.76534 3.41476 1.27825 3.90501 1.11294 4.52751C0.812561 5.6558 0.812561 8.00995 0.812561 8.00995C0.812561 8.00995 0.812561 10.3641 1.11294 11.4924C1.27825 12.1149 1.76534 12.5847 2.38381 12.7512C3.50487 13.0535 8.00003 13.0535 8.00003 13.0535C8.00003 13.0535 12.4952 13.0535 13.6162 12.7511C14.2347 12.5847 14.7218 12.1149 14.8871 11.4924C15.1875 10.3641 15.1875 8.00992 15.1875 8.00992C15.1875 8.00992 15.1875 5.6558 14.8871 4.52748Z" fill="#6D747A"/>
<path d="M6.52985 10.1469V5.87207L10.2869 8.00951L6.52985 10.1469Z" fill="#EBEDF0"/>
</svg>
